<?xml version="1.0" encoding="UTF-8" standalone="no"?>
<svg
   xmlns:dc="http://purl.org/dc/elements/1.1/"
   xmlns:cc="http://creativecommons.org/ns#"
   xmlns:rdf="http://www.w3.org/1999/02/22-rdf-syntax-ns#"
   xmlns:svg="http://www.w3.org/2000/svg"
   xmlns="http://www.w3.org/2000/svg"
   version="1.1"
   id="svg4156"
   viewBox="0 0 293.30685 250.00003"
   height="70.555565mm"
   width="82.77771mm">
  <defs
     id="defs4158" />
  <metadata
     id="metadata4161">
    <rdf:RDF>
      <cc:Work
         rdf:about="">
        <dc:format>image/svg+xml</dc:format>
        <dc:type
           rdf:resource="http://purl.org/dc/dcmitype/StillImage" />
        <dc:title></dc:title>
      </cc:Work>
    </rdf:RDF>
  </metadata>
  <g
     transform="translate(40.476969,-338.09134)"
     id="layer1">
    <path
       id="path3452"
       d="m -40.476439,452.81062 0,-105.07493 11.121861,0 9.153251,0 0.0738,96.86598 0.0738,123.13459 138.410337,0.0655 134.47331,0.0665 0,9.12722 0,11.09589 -143.70071,0 -149.606179,0 z m 57.480307,69.15394 0,-29.35376 3.17284,2.82269 3.172831,2.82259 15.134242,-13.46211 15.13425,-13.462 0,39.99318 0,39.99306 -18.30698,0 -18.307183,0 z m 55.216533,-18.91399 0,-48.2677 13.46501,-11.981 13.4648,-11.981 4.916099,1.09479 4.9159,1.09487 0.074,59.15396 0.075,59.15372 -18.455299,0 -18.45541,0 z m 55.511809,-8.73546 c 0,-31.35163 0.1,-57.00635 0.2216,-57.01038 0.1217,0 8.3598,1.79763 18.3069,4.00384 l 18.0856,4.01111 0,52.99926 0,52.99927 -18.3071,0 -18.307,0 z m 55.21651,1.59598 0,-55.40715 8.8983,-13.21988 c 4.8941,-7.27087 9.0665,-13.38119 9.2719,-13.57834 0.3108,-0.29842 1.9151,0.46476 9.5563,4.54587 l 9.1829,4.90441 0,64.08118 0,64.08103 -18.4547,0 -18.4547,0 z m -166.093672,-26.81494 -6.492121,-5.78022 38.694964,-34.42439 38.69492,-34.42439 36.129199,8.03621 c 19.8709,4.41998 36.2219,7.94271 36.3356,7.82844 0.8406,-0.84585 18.86871,-28.04229 18.68481,-28.18708 -0.1294,-0.10178 -5.3962,-2.93356 -11.70401,-6.29282 -6.3469,-3.38002 -11.3562,-6.20797 -11.2164,-6.33227 0.4039,-0.35935 63.64791,-31.53119 63.76381,-31.42803 0.1298,0.11535 -1.0896,64.90487 -1.2239,65.02988 -0.053,0.0492 -5.357,-2.71674 -11.7861,-6.14744 -6.4292,-3.43061 -11.7413,-6.18997 -11.8047,-6.13189 -0.063,0.0581 -5.9284,8.73494 -13.0334,19.28179 -7.105,10.54683 -12.93331,19.19801 -12.95171,19.22469 -0.019,0.0266 -16.9726,-3.72176 -37.6758,-8.32972 l -37.642199,-8.37824 -34.99069,31.11779 c -19.24488,17.11485 -35.057962,31.1179 -35.140342,31.1179 -0.0817,0 -3.071171,-2.60109 -6.641931,-5.78021 z"
       style="fill:#000000" />
  </g>
</svg>
