<?xml version="1.0" encoding="UTF-8" standalone="no"?>
<svg
   xmlns:dc="http://purl.org/dc/elements/1.1/"
   xmlns:cc="http://creativecommons.org/ns#"
   xmlns:rdf="http://www.w3.org/1999/02/22-rdf-syntax-ns#"
   xmlns:svg="http://www.w3.org/2000/svg"
   xmlns="http://www.w3.org/2000/svg"
   version="1.1"
   id="svg4156"
   viewBox="0 0 333.06011 250"
   height="70.555557mm"
   width="93.996964mm">
  <defs
     id="defs4158" />
  <metadata
     id="metadata4161">
    <rdf:RDF>
      <cc:Work
         rdf:about="">
        <dc:format>image/svg+xml</dc:format>
        <dc:type
           rdf:resource="http://purl.org/dc/dcmitype/StillImage" />
        <dc:title></dc:title>
      </cc:Work>
    </rdf:RDF>
  </metadata>
  <g
     transform="translate(19.263216,-354.77763)"
     id="layer1">
    <path
       id="path3606"
       d="m 42.566184,604.11744 c -28.861,-4.20944 -52.3774999,-25.53394 -60.143,-54.53726 -1.5101,-5.64015 -1.6864,-7.49041 -1.6864,-17.69803 0,-10.20763 0.1763,-12.05789 1.6864,-17.69815 3.5697,-13.3325 9.9125001,-24.45527 19.2974001,-33.84023 7.8689,-7.86888 19.0420999,-14.87602 27.9998999,-17.55982 l 2.5026,-0.74983 0.3948,-7.25371 c 1.732,-31.82267 23.5764,-58.28185 55.0546,-66.68518 5.5728,-1.48767 7.5751,-1.68428 17.372396,-1.7056 6.2507,-0.0133 12.3453,0.29998 13.9935,0.71996 2.9194,0.74406 2.92,0.74384 4.8196,-1.66341 3.7809,-4.79118 12.3451,-12.56613 18.0316,-16.36968 13.3701,-8.94311 26.9473,-13.42232 43.0242,-14.1938 14.2818,-0.68544 27.1887,1.97372 40.0139,8.24368 17.6444,8.62604 30.1502,21.132 38.7764,38.77641 6.2026,12.68715 8.8981,25.6272 8.276,39.72729 l -0.3238,7.33443 5.2839,3.47981 c 2.9061,1.91388 8.4025,6.5735 12.2141,10.35473 21.5719,21.39966 29.5513,51.21665 21.6692,80.97179 -3.2152,12.13759 -12.1357,27.44481 -21.3826,36.69178 -8.8348,8.83475 -24.2704,18.00334 -35.5525,21.11779 -11.9457,3.29762 -10.4591,3.25555 -112.3654,3.1745 -52.306996,-0.0411 -96.837596,-0.32839 -98.956796,-0.63747 z M 245.39188,582.16478 c 14.4802,-3.87105 27.3629,-12.6837 36.0506,-24.66099 3.5833,-4.94028 8.0313,-14.77421 9.6914,-21.42675 2.0479,-8.20649 2.0521,-21.01154 0.011,-29.19338 -4.9285,-19.74325 -20.1628,-36.8531 -38.7256,-43.4931 -3.7113,-1.32768 -5.6483,-2.34396 -5.4504,-2.85976 6.1268,-15.9659 5.4528,-33.54037 -1.8798,-49.01967 -6.4215,-13.55599 -16.2269,-23.36661 -29.7185,-29.73427 -9.6748,-4.56625 -15.4271,-5.82489 -26.6203,-5.82489 -7.7412,0 -10.444,0.26556 -14.9821,1.47257 -17.9227,4.76687 -32.9451,16.84496 -40.7537,32.76634 l -1.8128,3.69641 -2.9812,-1.50621 c -5.5464,-2.80248 -13.7187,-4.96903 -20.2421,-5.36637 -22.598996,-1.37687 -44.583296,13.58807 -51.808496,35.26651 -4.0915,12.27637 -3.6785,23.99831 1.299,36.87019 0.3337,0.86296 -0.217,0.97043 -3.7999,0.74239 -5.0517,-0.32173 -13.2654,1.23621 -19.7166,3.73971 -13.2628,5.14678 -25.2927999,17.78929 -29.7950999,31.31242 -4.17429999,12.53738 -3.90419999,23.94647 0.8581,36.24404 5.1492999,13.29676 17.7765999,25.28759 31.4153999,29.83208 2.7457,0.91481 6.5564,1.92675 8.4681,2.24871 1.9672,0.33118 45.0374,0.53778 99.230996,0.47583 l 95.7548,-0.1088 5.5084,-1.47245 z m -129.9246,-50.28263 -31.261896,-31.2669 21.004896,0 21.0049,0 0,-31.26691 0,-31.2669 20.8446,0 20.8445,0 0,31.2669 0,31.26691 21.005,0 21.0049,0 -31.2618,31.2669 c -17.194,17.19678 -31.4107,31.2669 -31.5926,31.2669 -0.182,0 -14.3986,-14.07012 -31.5925,-31.2669 z"
       style="fill:#000000" />
  </g>
</svg>
