<?xml version="1.0" encoding="UTF-8" standalone="no"?>
<!-- Created with Inkscape (http://www.inkscape.org/) -->

<svg
   xmlns:dc="http://purl.org/dc/elements/1.1/"
   xmlns:cc="http://creativecommons.org/ns#"
   xmlns:rdf="http://www.w3.org/1999/02/22-rdf-syntax-ns#"
   xmlns:svg="http://www.w3.org/2000/svg"
   xmlns="http://www.w3.org/2000/svg"
   xmlns:sodipodi="http://sodipodi.sourceforge.net/DTD/sodipodi-0.dtd"
   xmlns:inkscape="http://www.inkscape.org/namespaces/inkscape"
   width="116.67263"
   height="116.67263"
   viewBox="0 0 116.67263 116.67263"
   id="svg2"
   version="1.1"
   inkscape:version="0.91 r13725"
   sodipodi:docname="donate_icon.svg">
  <defs
     id="defs4" />
  <sodipodi:namedview
     id="base"
     pagecolor="#ffffff"
     bordercolor="#666666"
     borderopacity="1.0"
     inkscape:pageopacity="0.0"
     inkscape:pageshadow="2"
     inkscape:zoom="1.4"
     inkscape:cx="61.161538"
     inkscape:cy="61.980499"
     inkscape:document-units="px"
     inkscape:current-layer="layer1"
     showgrid="false"
     inkscape:window-width="641"
     inkscape:window-height="362"
     inkscape:window-x="1117"
     inkscape:window-y="609"
     inkscape:window-maximized="0"
     fit-margin-top="0"
     fit-margin-left="0"
     fit-margin-right="0"
     fit-margin-bottom="0"
     units="px" />
  <metadata
     id="metadata7">
    <rdf:RDF>
      <cc:Work
         rdf:about="">
        <dc:format>image/svg+xml</dc:format>
        <dc:type
           rdf:resource="http://purl.org/dc/dcmitype/StillImage" />
        <dc:title></dc:title>
      </cc:Work>
    </rdf:RDF>
  </metadata>
  <g
     inkscape:label="Layer 1"
     inkscape:groupmode="layer"
     id="layer1"
     transform="translate(-313.71093,-467.84478)">
    <g
       id="g4842">
      <circle
         r="58.336311"
         cy="526.18109"
         cx="372.04724"
         id="path4813-8"
         style="opacity:1;fill:#000000;fill-opacity:1;stroke:none;stroke-width:2;stroke-linecap:round;stroke-linejoin:miter;stroke-miterlimit:4;stroke-dasharray:none;stroke-dashoffset:3.42180014;stroke-opacity:1" />
      <path
         sodipodi:nodetypes="scccccscccssscssssscsssscsscccscsssss"
         inkscape:connector-curvature="0"
         id="path4813"
         d="m 361.67455,489.44825 c -4.36557,0.19702 -8.51987,2.72351 -10.58584,6.9305 -3.73542,10.82091 7.24108,19.011 10.889,22.67011 5.3936,5.40272 9.86933,9.82502 9.94473,9.82793 0.0754,0.003 4.56667,-4.41732 9.982,-9.82296 6.87411,-7.22117 15.11082,-14.12217 10.9561,-22.67508 -3.00505,-6.11925 -10.42501,-8.6825 -16.49254,-5.69547 -1.34042,0.65988 -2.87652,1.72405 -3.41431,2.36317 l -0.97907,1.16047 -0.97657,-1.16047 c -0.53779,-0.63912 -2.07638,-1.70329 -3.4168,-2.36317 -1.8961,-0.93346 -3.92235,-1.32457 -5.9067,-1.23503 z m -23.1,41.83645 c -0.5896,-0.0413 -1.12686,0.0476 -1.71461,0.22364 -1.38093,0.41375 -1.52574,0.57863 -1.52574,1.71958 0,1.55585 1.84849,4.49651 5.7899,9.20422 5.29775,6.32774 8.67741,9.12751 14.62883,12.11905 6.17806,3.10545 9.88388,3.51266 21.5668,2.37063 8.34258,-0.81553 9.01114,-0.65346 14.06724,3.43169 1.42193,1.14887 3.00282,2.24494 3.51371,2.43525 1.26552,0.47144 3.60072,-0.27166 6.77145,-2.15693 4.49664,-2.67367 7.5216,-5.81972 7.03735,-7.32063 -0.31596,-0.9793 -2.84589,-3.42874 -5.43705,-5.26558 -5.69087,-4.03418 -6.95963,-5.17411 -8.56807,-7.68344 -0.89748,-1.40017 -2.17904,-3.0057 -2.84773,-3.56838 -1.51508,-1.27485 -4.37904,-2.16719 -7.85738,-2.44765 -2.2805,-0.18388 -3.28721,-0.0349 -6.87086,1.01136 -3.59821,1.05053 -4.96262,1.24958 -9.54216,1.39405 -2.93899,0.0928 -5.99802,0.34422 -6.79632,0.55912 -2.45639,0.66123 -3.74015,2.64448 -2.42032,3.73983 0.61472,0.51019 5.84471,1.03269 15.45383,1.54563 4.3628,0.23288 7.20987,0.54669 7.55421,0.83246 0.89094,0.73941 0.0809,1.07385 -1.76928,0.72808 -0.94467,-0.17655 -4.46623,-0.4317 -7.82507,-0.56657 -8.82656,-0.35441 -13.03979,-0.87685 -15.26747,-1.89104 -1.04964,-0.47787 -4.85513,-2.85804 -8.45872,-5.29043 -5.47456,-3.69526 -7.71374,-4.99987 -9.48254,-5.12394 z"
         style="opacity:1;fill:#ffffff;fill-opacity:1;stroke:none;stroke-width:2;stroke-linecap:round;stroke-linejoin:miter;stroke-miterlimit:4;stroke-dasharray:none;stroke-dashoffset:3.42180014;stroke-opacity:1" />
    </g>
  </g>
</svg>
