<?xml version="1.0" encoding="UTF-8" standalone="no"?>
<!-- Created with Inkscape (http://www.inkscape.org/) -->

<svg
   xmlns:dc="http://purl.org/dc/elements/1.1/"
   xmlns:cc="http://creativecommons.org/ns#"
   xmlns:rdf="http://www.w3.org/1999/02/22-rdf-syntax-ns#"
   xmlns:svg="http://www.w3.org/2000/svg"
   xmlns="http://www.w3.org/2000/svg"
   xmlns:sodipodi="http://sodipodi.sourceforge.net/DTD/sodipodi-0.dtd"
   xmlns:inkscape="http://www.inkscape.org/namespaces/inkscape"
   width="108.86648mm"
   height="74.04277mm"
   viewBox="0 0 385.74736 262.35627"
   id="svg5014"
   version="1.1"
   inkscape:version="0.91 r13725"
   sodipodi:docname="eac3.svg">
  <defs
     id="defs5016" />
  <sodipodi:namedview
     id="base"
     pagecolor="#ffffff"
     bordercolor="#666666"
     borderopacity="1.0"
     inkscape:pageopacity="0.0"
     inkscape:pageshadow="2"
     inkscape:zoom="0.7"
     inkscape:cx="190.73082"
     inkscape:cy="132.60671"
     inkscape:document-units="px"
     inkscape:current-layer="layer1"
     showgrid="false"
     inkscape:window-width="1366"
     inkscape:window-height="719"
     inkscape:window-x="0"
     inkscape:window-y="1"
     inkscape:window-maximized="1"
     fit-margin-top="0"
     fit-margin-left="0"
     fit-margin-right="0"
     fit-margin-bottom="0" />
  <metadata
     id="metadata5019">
    <rdf:RDF>
      <cc:Work
         rdf:about="">
        <dc:format>image/svg+xml</dc:format>
        <dc:type
           rdf:resource="http://purl.org/dc/dcmitype/StillImage" />
        <dc:title></dc:title>
      </cc:Work>
    </rdf:RDF>
  </metadata>
  <g
     inkscape:label="Layer 1"
     inkscape:groupmode="layer"
     id="layer1"
     transform="translate(-174.26918,-174.04121)">
    <g
       style="display:inline"
       transform="translate(-384.5284,-252.36901)"
       id="g4895">
      <g
         id="g4897"
         transform="matrix(1.02822,0,0,1.02822,420.46669,2.8928428)">
        <g
           transform="translate(0,100)"
           id="g4899"
           style="font-style:normal;font-variant:normal;font-weight:bold;font-stretch:normal;font-size:90px;line-height:125%;font-family:'Century Gothic';-inkscape-font-specification:'Century Gothic, Bold';text-align:start;letter-spacing:0px;word-spacing:0px;writing-mode:lr-tb;text-anchor:start;fill:#5db842;fill-opacity:1;stroke:#5db842;stroke-width:1px;stroke-linecap:butt;stroke-linejoin:miter;stroke-opacity:1">
          <path
             inkscape:connector-curvature="0"
             id="path4901"
             style="font-style:normal;font-variant:normal;font-weight:bold;font-stretch:normal;font-size:90px;line-height:125%;font-family:'Century Gothic';-inkscape-font-specification:'Century Gothic, Bold';text-align:start;letter-spacing:-2.06000018px;writing-mode:lr-tb;text-anchor:start;fill:#5db842;fill-opacity:1;stroke:#5db842;stroke-opacity:1"
             d="m 185.17593,521.99414 -38.54004,0 q 0.83496,5.09766 4.43848,8.12988 3.64746,2.98828 9.27246,2.98828 6.72363,0 11.55762,-4.70214 l 10.10742,4.74609 q -3.7793,5.36133 -9.05273,7.9541 -5.27344,2.54883 -12.52442,2.54883 -11.25,0 -18.32519,-7.0752 -7.0752,-7.11914 -7.0752,-17.79785 0,-10.94238 7.03125,-18.14941 7.0752,-7.25098 17.70996,-7.25098 11.29395,0 18.36914,7.25098 7.0752,7.20703 7.0752,19.07226 l -0.0439,2.28516 z m -12.04101,-9.44824 q -1.18653,-3.99903 -4.70215,-6.50391 -3.47168,-2.50488 -8.08594,-2.50488 -5.00976,0 -8.78906,2.8125 -2.37305,1.75781 -4.39453,6.19629 l 25.97168,0 z" />
          <path
             inkscape:connector-curvature="0"
             id="path4903"
             style="font-style:normal;font-variant:normal;font-weight:bold;font-stretch:normal;font-size:90px;line-height:125%;font-family:'Century Gothic';-inkscape-font-specification:'Century Gothic, Bold';text-align:start;letter-spacing:-2.06000018px;writing-mode:lr-tb;text-anchor:start;fill:#5db842;fill-opacity:1;stroke:#5db842;stroke-opacity:1"
             d="m 225.72658,494.61621 11.95313,0 0,47.8125 -11.95313,0 0,-5.05371 q -3.51562,3.33984 -7.07519,4.83398 -3.51563,1.4502 -7.64649,1.4502 -9.27246,0 -16.04004,-7.16309 -6.76757,-7.20703 -6.76757,-17.88574 0,-11.07422 6.54785,-18.14941 6.54785,-7.0752 15.9082,-7.0752 4.30664,0 8.08594,1.62598 3.77929,1.62598 6.9873,4.87793 l 0,-5.27344 z m -12.6123,9.84375 q -5.58106,0 -9.27246,3.95508 -3.69141,3.91113 -3.69141,10.06348 0,6.19628 3.73535,10.19531 3.7793,3.99902 9.27246,3.99902 5.66895,0 9.4043,-3.91113 3.73535,-3.95508 3.73535,-10.32715 0,-6.24023 -3.73535,-10.10742 -3.73535,-3.86719 -9.44824,-3.86719 z" />
          <path
             inkscape:connector-curvature="0"
             id="path4905"
             style="font-style:normal;font-variant:normal;font-weight:bold;font-stretch:normal;font-size:90px;line-height:125%;font-family:'Century Gothic';-inkscape-font-specification:'Century Gothic, Bold';text-align:start;letter-spacing:-2.06000018px;writing-mode:lr-tb;text-anchor:start;fill:#5db842;fill-opacity:1;stroke:#5db842;stroke-opacity:1"
             d="m 241.15717,494.61621 10.28321,0 0,6.02051 c 1.11328,-2.37305 2.58719,-4.18321 4.43847,-5.40527 2.42618,-1.60156 6.86752,-2.17885 10.14248,-0.61561 l -0.035,10.328 c -12.39231,-1.04724 -12.9365,8.24637 -12.96392,15.81983 l 0.0439,2.3291 0,19.33594 -11.90918,0 0,-47.8125 z"
             sodipodi:nodetypes="cccscccccccc" />
          <path
             inkscape:connector-curvature="0"
             id="path4907"
             style="font-style:normal;font-variant:normal;font-weight:bold;font-stretch:normal;font-size:90px;line-height:125%;font-family:'Century Gothic';-inkscape-font-specification:'Century Gothic, Bold';text-align:start;letter-spacing:-2.06000018px;writing-mode:lr-tb;text-anchor:start;fill:#5db842;fill-opacity:1;stroke:#5db842;stroke-opacity:1"
             d="m 276.07463,476.99414 11.95312,0 0,17.62207 7.11914,0 0,10.32715 -7.11914,0 0,37.48535 -11.95312,0 0,-37.48535 -6.15235,4.8e-4 0,-10.328 6.15235,3.7e-4 z"
             sodipodi:nodetypes="ccccccccccccc" />
          <path
             inkscape:connector-curvature="0"
             id="path4909"
             style="font-style:normal;font-variant:normal;font-weight:bold;font-stretch:normal;font-size:90px;line-height:125%;font-family:'Century Gothic';-inkscape-font-specification:'Century Gothic, Bold';text-align:start;letter-spacing:-2.06000018px;writing-mode:lr-tb;text-anchor:start;fill:#5db842;fill-opacity:1;stroke:#5db842;stroke-opacity:1"
             d="m 298.12431,476.15918 11.90918,0 0,23.29102 q 3.51563,-3.03223 7.0752,-4.52637 3.55957,-1.53809 7.20703,-1.53809 7.11914,0 11.99707,4.92188 4.1748,4.26269 4.1748,12.52441 l 0,31.59668 -11.82128,0 0,-20.96191 q 0,-8.30567 -0.79102,-11.25 -0.79102,-2.94434 -2.72461,-4.39453 -1.88965,-1.4502 -4.70215,-1.4502 -3.64746,0 -6.28418,2.41699 -2.59277,2.41699 -3.60351,6.5918 -0.52735,2.15332 -0.52735,9.84375 l 0,19.2041 -11.90918,0 0,-66.26953 z" />
        </g>
        <g
           transform="translate(-12.599901,100)"
           id="g4911"
           style="font-style:normal;font-variant:normal;font-weight:bold;font-stretch:normal;font-size:90px;line-height:125%;font-family:'Century Gothic';-inkscape-font-specification:'Century Gothic, Bold';text-align:start;letter-spacing:0px;word-spacing:0px;writing-mode:lr-tb;text-anchor:start;fill:#0089bf;fill-opacity:1;stroke:#0089bf;stroke-width:1px;stroke-linecap:butt;stroke-linejoin:miter;stroke-opacity:1">
          <path
             inkscape:connector-curvature="0"
             id="path4913"
             style="font-style:normal;font-variant:normal;font-weight:bold;font-stretch:normal;font-size:90px;line-height:125%;font-family:'Century Gothic';-inkscape-font-specification:'Century Gothic, Bold';text-align:start;letter-spacing:-6.04000235px;writing-mode:lr-tb;text-anchor:start;fill:#0089bf;fill-opacity:1;stroke:#0089bf;stroke-opacity:1"
             d="m 407.27709,504.28418 -9.97559,5.49316 q -2.8125,-2.94433 -5.58105,-4.08691 -2.72461,-1.14258 -6.41602,-1.14258 -6.72363,0 -10.89843,4.04297 -4.13086,3.99902 -4.13086,10.2832 0,6.1084 3.99902,9.97559 3.99902,3.86719 10.50293,3.86719 8.04199,0 12.52441,-5.49317 l 9.44825,6.45996 q -7.69043,9.97559 -21.70899,9.97559 -12.6123,0 -19.77539,-7.4707 -7.11914,-7.47071 -7.11914,-17.49024 0,-6.94336 3.47168,-12.78808 3.47168,-5.84473 9.66797,-9.18457 6.24023,-3.33985 13.93066,-3.33985 7.11914,0 12.78809,2.85645 5.66894,2.8125 9.27246,8.04199 z" />
          <path
             inkscape:connector-curvature="0"
             id="path4915"
             style="font-style:normal;font-variant:normal;font-weight:bold;font-stretch:normal;font-size:90px;line-height:125%;font-family:'Century Gothic';-inkscape-font-specification:'Century Gothic, Bold';text-align:start;letter-spacing:-6.04000235px;writing-mode:lr-tb;text-anchor:start;fill:#0089bf;fill-opacity:1;stroke:#0089bf;stroke-opacity:1"
             d="m 434.03964,493.38574 q 6.76758,0 12.7002,3.38379 5.97656,3.38379 9.31641,9.18457 3.33984,5.80078 3.33984,12.52442 0,6.76757 -3.38379,12.65625 -3.33984,5.88867 -9.14062,9.22851 -5.80079,3.2959 -12.78809,3.2959 -10.2832,0 -17.57813,-7.29492 -7.25097,-7.33887 -7.25097,-17.79785 0,-11.20606 8.21777,-18.67676 7.20703,-6.50391 16.56738,-6.50391 z m 0.17579,11.29395 q -5.58106,0 -9.31641,3.91113 -3.69141,3.86719 -3.69141,9.93164 0,6.24024 3.64746,10.10742 3.69141,3.86719 9.31641,3.86719 5.625,0 9.36035,-3.91113 3.73535,-3.91114 3.73535,-10.06348 0,-6.15234 -3.6914,-9.97559 -3.64746,-3.86718 -9.36035,-3.86718 z" />
          <path
             inkscape:connector-curvature="0"
             id="path4917"
             style="font-style:normal;font-variant:normal;font-weight:bold;font-stretch:normal;font-size:90px;line-height:125%;font-family:'Century Gothic';-inkscape-font-specification:'Century Gothic, Bold';text-align:start;letter-spacing:-6.04000235px;writing-mode:lr-tb;text-anchor:start;fill:#0089bf;fill-opacity:1;stroke:#0089bf;stroke-opacity:1"
             d="m 468.59472,474.92871 q 3.16406,0 5.40527,2.28516 2.28516,2.28515 2.28516,5.53711 0,3.208 -2.24122,5.49316 -2.24121,2.24121 -5.36132,2.24121 -3.20801,0 -5.49317,-2.28515 -2.24121,-2.32911 -2.24121,-5.625 0,-3.16407 2.24121,-5.40528 2.24121,-2.24121 5.40528,-2.24121 z m -6.02051,19.6875 12.04101,0 0,47.8125 -12.04101,0 0,-47.8125 z" />
          <path
             inkscape:connector-curvature="0"
             id="path4919"
             style="font-style:normal;font-variant:normal;font-weight:bold;font-stretch:normal;font-size:90px;line-height:125%;font-family:'Century Gothic';-inkscape-font-specification:'Century Gothic, Bold';text-align:start;letter-spacing:-6.04000235px;writing-mode:lr-tb;text-anchor:start;fill:#0089bf;fill-opacity:1;stroke:#0089bf;stroke-opacity:1"
             d="m 478.53723,494.61621 11.95313,0 0,4.87793 q 4.08691,-3.42773 7.38281,-4.74609 3.33984,-1.36231 6.81152,-1.36231 7.11914,0 12.08496,4.96582 4.17481,4.21875 4.17481,12.48047 l 0,31.59668 -11.86523,0 0,-20.96191 q 0,-8.56934 -0.79102,-11.38184 -0.74707,-2.8125 -2.68066,-4.26269 -1.88965,-1.49415 -4.70215,-1.49415 -3.64746,0 -6.28418,2.46094 -2.59278,2.41699 -3.60352,6.72364 -0.52734,2.24121 -0.52734,9.71191 l 0,19.2041 -11.95313,0 0,-47.8125 z" />
        </g>
      </g>
      <g
         style="font-style:normal;font-variant:normal;font-weight:bold;font-stretch:normal;font-size:20px;line-height:125%;font-family:'Century Gothic';-inkscape-font-specification:'Century Gothic, Bold';text-align:start;letter-spacing:0px;word-spacing:0px;writing-mode:lr-tb;text-anchor:start;fill:#0089bf;fill-opacity:1;stroke:none;stroke-width:1px;stroke-linecap:butt;stroke-linejoin:miter;stroke-opacity:1"
         id="g4921"
         transform="translate(429.9096,14.242641)">
        <path
           d="m 133.25128,659.7973 7.93945,0 0,2.69531 -2.61718,0 0,11.66993 -2.77344,0 0,-11.66993 -2.54883,0 0,-2.69531 z"
           style="font-style:normal;font-variant:normal;font-weight:bold;font-stretch:normal;font-size:20px;line-height:125%;font-family:'Century Gothic';-inkscape-font-specification:'Century Gothic, Bold';text-align:start;letter-spacing:8.13000011px;writing-mode:lr-tb;text-anchor:start;fill:#0089bf;fill-opacity:1"
           id="path4923"
           inkscape:connector-curvature="0" />
        <path
           d="m 151.18597,659.7973 2.77344,0 0,5.41992 4.80469,0 0,-5.41992 2.76367,0 0,14.36524 -2.76367,0 0,-6.29883 -4.80469,0 0,6.29883 -2.77344,0 0,-14.36524 z"
           style="font-style:normal;font-variant:normal;font-weight:bold;font-stretch:normal;font-size:20px;line-height:125%;font-family:'Century Gothic';-inkscape-font-specification:'Century Gothic, Bold';text-align:start;letter-spacing:8.13000011px;writing-mode:lr-tb;text-anchor:start;fill:#0089bf;fill-opacity:1"
           id="path4925"
           inkscape:connector-curvature="0" />
        <path
           d="m 172.96832,659.7973 7.84179,0 0,2.67578 -5.12695,0 0,2.59766 5.12695,0 0,2.62695 -5.12695,0 0,3.7793 5.12695,0 0,2.68555 -7.84179,0 0,-14.36524 z"
           style="font-style:normal;font-variant:normal;font-weight:bold;font-stretch:normal;font-size:20px;line-height:125%;font-family:'Century Gothic';-inkscape-font-specification:'Century Gothic, Bold';text-align:start;letter-spacing:8.13000011px;writing-mode:lr-tb;text-anchor:start;fill:#0089bf;fill-opacity:1"
           id="path4927"
           inkscape:connector-curvature="0" />
        <path
           d="m 205.18535,659.7973 2.90039,0 q 2.35351,0 3.38867,0.43946 1.04492,0.42968 1.64063,1.40625 0.60546,0.96679 0.60546,2.32421 0,1.50391 -0.79101,2.5 -0.78125,0.9961 -2.12891,1.38672 -0.79101,0.22461 -2.88086,0.22461 l 0,6.08399 -2.73437,0 0,-14.36524 z m 2.73437,5.61524 0.86914,0 q 1.02539,0 1.42579,-0.14649 0.40039,-0.14648 0.625,-0.47851 0.23437,-0.3418 0.23437,-0.82032 0,-0.83007 -0.64453,-1.21093 -0.46875,-0.28321 -1.73828,-0.28321 l -0.77149,0 0,2.93946 z"
           style="font-style:normal;font-variant:normal;font-weight:bold;font-stretch:normal;font-size:20px;line-height:125%;font-family:'Century Gothic';-inkscape-font-specification:'Century Gothic, Bold';text-align:start;letter-spacing:8.13000011px;writing-mode:lr-tb;text-anchor:start;fill:#0089bf;fill-opacity:1"
           id="path4929"
           inkscape:connector-curvature="0" />
        <path
           d="m 224.58488,659.7973 7.84179,0 0,2.67578 -5.12695,0 0,2.59766 5.12695,0 0,2.62695 -5.12695,0 0,3.7793 5.12695,0 0,2.68555 -7.84179,0 0,-14.36524 z"
           style="font-style:normal;font-variant:normal;font-weight:bold;font-stretch:normal;font-size:20px;line-height:125%;font-family:'Century Gothic';-inkscape-font-specification:'Century Gothic, Bold';text-align:start;letter-spacing:8.13000011px;writing-mode:lr-tb;text-anchor:start;fill:#0089bf;fill-opacity:1"
           id="path4931"
           inkscape:connector-curvature="0" />
        <path
           d="m 249.88284,659.43597 q 3.04688,0 5.23438,2.20704 2.19726,2.20703 2.19726,5.38085 0,3.14454 -2.16797,5.32227 -2.1582,2.17773 -5.24414,2.17773 -3.23242,0 -5.37109,-2.23632 -2.13867,-2.23633 -2.13867,-5.3125 0,-2.06055 0.99609,-3.78907 0.9961,-1.72851 2.73438,-2.73437 1.74804,-1.01563 3.75976,-1.01563 z m -0.0293,2.67579 q -1.99219,0 -3.34961,1.38671 -1.35743,1.38672 -1.35743,3.52539 0,2.38282 1.70899,3.76954 1.32812,1.08398 3.04687,1.08398 1.94336,0 3.31055,-1.40625 1.36719,-1.40625 1.36719,-3.4668 0,-2.05078 -1.37695,-3.46679 -1.37696,-1.42578 -3.34961,-1.42578 z"
           style="font-style:normal;font-variant:normal;font-weight:bold;font-stretch:normal;font-size:20px;line-height:125%;font-family:'Century Gothic';-inkscape-font-specification:'Century Gothic, Bold';text-align:start;letter-spacing:8.13000011px;writing-mode:lr-tb;text-anchor:start;fill:#0089bf;fill-opacity:1"
           id="path4933"
           inkscape:connector-curvature="0" />
        <path
           d="m 268.01285,659.7973 2.90039,0 q 2.35351,0 3.38867,0.43946 1.04492,0.42968 1.64063,1.40625 0.60546,0.96679 0.60546,2.32421 0,1.50391 -0.79101,2.5 -0.78125,0.9961 -2.12891,1.38672 -0.79101,0.22461 -2.88086,0.22461 l 0,6.08399 -2.73437,0 0,-14.36524 z m 2.73437,5.61524 0.86914,0 q 1.02539,0 1.42578,-0.14649 0.4004,-0.14648 0.625,-0.47851 0.23438,-0.3418 0.23438,-0.82032 0,-0.83007 -0.64453,-1.21093 -0.46875,-0.28321 -1.73828,-0.28321 l -0.77149,0 0,2.93946 z"
           style="font-style:normal;font-variant:normal;font-weight:bold;font-stretch:normal;font-size:20px;line-height:125%;font-family:'Century Gothic';-inkscape-font-specification:'Century Gothic, Bold';text-align:start;letter-spacing:8.13000011px;writing-mode:lr-tb;text-anchor:start;fill:#0089bf;fill-opacity:1"
           id="path4935"
           inkscape:connector-curvature="0" />
        <path
           d="m 287.40262,659.7973 2.73437,0 0,11.75781 3.98438,0 0,2.60743 -6.71875,0 0,-14.36524 z"
           style="font-style:normal;font-variant:normal;font-weight:bold;font-stretch:normal;font-size:20px;line-height:125%;font-family:'Century Gothic';-inkscape-font-specification:'Century Gothic, Bold';text-align:start;letter-spacing:8.13000011px;writing-mode:lr-tb;text-anchor:start;fill:#0089bf;fill-opacity:1"
           id="path4937"
           inkscape:connector-curvature="0" />
        <path
           d="m 304.33144,659.7973 7.84179,0 0,2.67578 -5.12695,0 0,2.59766 5.12695,0 0,2.62695 -5.12695,0 0,3.7793 5.12695,0 0,2.68555 -7.84179,0 0,-14.36524 z"
           style="font-style:normal;font-variant:normal;font-weight:bold;font-stretch:normal;font-size:20px;line-height:125%;font-family:'Century Gothic';-inkscape-font-specification:'Century Gothic, Bold';text-align:start;letter-spacing:8.13000011px;writing-mode:lr-tb;text-anchor:start;fill:#0089bf;fill-opacity:1"
           id="path4939"
           inkscape:connector-curvature="0" />
        <path
           d="m 330.3716,661.75043 -2.02149,1.78711 q -1.06445,-1.48438 -2.16797,-1.48438 -0.53711,0 -0.8789,0.29297 -0.3418,0.2832 -0.3418,0.64453 0,0.36133 0.24414,0.6836 0.33203,0.42968 2.00195,1.8457 1.5625,1.30859 1.89454,1.65039 0.83007,0.83984 1.17187,1.61133 0.35156,0.76172 0.35156,1.66992 0,1.76758 -1.2207,2.91992 -1.2207,1.15234 -3.18359,1.15234 -1.53321,0 -2.67578,-0.75195 -1.13282,-0.75195 -1.94336,-2.36328 l 2.29492,-1.38672 q 1.03515,1.9043 2.38281,1.9043 0.70313,0 1.18164,-0.41016 0.47852,-0.41015 0.47852,-0.94726 0,-0.48828 -0.36133,-0.97657 -0.36133,-0.48828 -1.5918,-1.49414 -2.34375,-1.91406 -3.02734,-2.94922 -0.6836,-1.04492 -0.6836,-2.08007 0,-1.49414 1.13282,-2.5586 1.14257,-1.07422 2.8125,-1.07422 1.07422,0 2.04101,0.49805 0.97656,0.49805 2.10938,1.81641 z"
           style="font-style:normal;font-variant:normal;font-weight:bold;font-stretch:normal;font-size:20px;line-height:125%;font-family:'Century Gothic';-inkscape-font-specification:'Century Gothic, Bold';text-align:start;letter-spacing:8.13000011px;writing-mode:lr-tb;text-anchor:start;fill:#0089bf;fill-opacity:1"
           id="path4941"
           inkscape:connector-curvature="0" />
        <path
           d="m 368.28198,662.3266 -1.91406,1.82617 q -1.95313,-2.06055 -4.39453,-2.06055 -2.06055,0 -3.47656,1.40625 -1.40625,1.40625 -1.40625,3.4668 0,1.43555 0.625,2.54883 0.625,1.11328 1.76757,1.74805 1.14258,0.63476 2.53907,0.63476 1.1914,0 2.17773,-0.43945 0.98633,-0.44922 2.16797,-1.6211 l 1.85547,1.9336 q -1.5918,1.55273 -3.00781,2.1582 -1.41602,0.5957 -3.23243,0.5957 -3.34961,0 -5.48828,-2.11914 -2.1289,-2.1289 -2.1289,-5.44921 0,-2.14844 0.96679,-3.81836 0.97657,-1.66993 2.78321,-2.68555 1.8164,-1.01563 3.90625,-1.01563 1.77734,0 3.41797,0.75196 1.65039,0.75195 2.84179,2.13867 z"
           style="font-style:normal;font-variant:normal;font-weight:bold;font-stretch:normal;font-size:20px;line-height:125%;font-family:'Century Gothic';-inkscape-font-specification:'Century Gothic, Bold';text-align:start;letter-spacing:8.13000011px;writing-mode:lr-tb;text-anchor:start;fill:#0089bf;fill-opacity:1"
           id="path4943"
           inkscape:connector-curvature="0" />
        <path
           d="m 378.73621,659.7973 2.74414,0 0,9.29688 q 0,1.20117 0.20507,1.69922 0.21485,0.49804 0.69336,0.80078 0.48829,0.29297 1.17188,0.29297 0.72266,0 1.24023,-0.33204 0.52735,-0.33203 0.72266,-0.83984 0.20508,-0.51758 0.20508,-1.96289 l 0,-8.95508 2.74414,0 0,8.56446 q 0,2.16796 -0.24414,3.00781 -0.24414,0.83984 -0.9375,1.62109 -0.6836,0.78125 -1.58203,1.16211 -0.89844,0.37109 -2.08985,0.37109 -1.5625,0 -2.72461,-0.71289 -1.15234,-0.72265 -1.65039,-1.79687 -0.49804,-1.08399 -0.49804,-3.65234 l 0,-8.56446 z"
           style="font-style:normal;font-variant:normal;font-weight:bold;font-stretch:normal;font-size:20px;line-height:125%;font-family:'Century Gothic';-inkscape-font-specification:'Century Gothic, Bold';text-align:start;letter-spacing:8.13000011px;writing-mode:lr-tb;text-anchor:start;fill:#0089bf;fill-opacity:1"
           id="path4945"
           inkscape:connector-curvature="0" />
        <path
           d="m 399.92285,659.7973 2.90039,0 q 2.38281,0 3.38867,0.42969 1.01563,0.41992 1.63086,1.40625 0.61524,0.98633 0.61524,2.33398 0,1.41602 -0.6836,2.37305 -0.67382,0.94727 -2.04101,1.43555 l 3.39844,6.38672 -2.98829,0 -3.23242,-6.08399 -0.2539,0 0,6.08399 -2.73438,0 0,-14.36524 z m 2.73438,5.61524 0.85937,0 q 1.3086,0 1.79688,-0.3418 0.49804,-0.3418 0.49804,-1.13281 0,-0.46875 -0.24414,-0.81055 -0.24414,-0.35156 -0.65429,-0.49805 -0.41016,-0.15625 -1.50391,-0.15625 l -0.75195,0 0,2.93946 z"
           style="font-style:normal;font-variant:normal;font-weight:bold;font-stretch:normal;font-size:20px;line-height:125%;font-family:'Century Gothic';-inkscape-font-specification:'Century Gothic, Bold';text-align:start;letter-spacing:8.13000011px;writing-mode:lr-tb;text-anchor:start;fill:#0089bf;fill-opacity:1"
           id="path4947"
           inkscape:connector-curvature="0" />
        <path
           d="m 419.69348,659.7973 2.90039,0 q 2.38281,0 3.38867,0.42969 1.01563,0.41992 1.63086,1.40625 0.61524,0.98633 0.61524,2.33398 0,1.41602 -0.6836,2.37305 -0.67382,0.94727 -2.04101,1.43555 l 3.39844,6.38672 -2.98829,0 -3.23242,-6.08399 -0.2539,0 0,6.08399 -2.73438,0 0,-14.36524 z m 2.73438,5.61524 0.85937,0 q 1.3086,0 1.79688,-0.3418 0.49804,-0.3418 0.49804,-1.13281 0,-0.46875 -0.24414,-0.81055 -0.24414,-0.35156 -0.65429,-0.49805 -0.41016,-0.15625 -1.50391,-0.15625 l -0.75195,0 0,2.93946 z"
           style="font-style:normal;font-variant:normal;font-weight:bold;font-stretch:normal;font-size:20px;line-height:125%;font-family:'Century Gothic';-inkscape-font-specification:'Century Gothic, Bold';text-align:start;letter-spacing:8.13000011px;writing-mode:lr-tb;text-anchor:start;fill:#0089bf;fill-opacity:1"
           id="path4949"
           inkscape:connector-curvature="0" />
        <path
           d="m 439.28833,659.7973 7.8418,0 0,2.67578 -5.12696,0 0,2.59766 5.12696,0 0,2.62695 -5.12696,0 0,3.7793 5.12696,0 0,2.68555 -7.8418,0 0,-14.36524 z"
           style="font-style:normal;font-variant:normal;font-weight:bold;font-stretch:normal;font-size:20px;line-height:125%;font-family:'Century Gothic';-inkscape-font-specification:'Century Gothic, Bold';text-align:start;letter-spacing:8.13000011px;writing-mode:lr-tb;text-anchor:start;fill:#0089bf;fill-opacity:1"
           id="path4951"
           inkscape:connector-curvature="0" />
        <path
           d="m 457.80893,659.7973 2.61719,0 6.16211,9.45313 0,-9.45313 2.73437,0 0,14.36524 -2.62695,0 -6.15235,-9.42383 0,9.42383 -2.73437,0 0,-14.36524 z"
           style="font-style:normal;font-variant:normal;font-weight:bold;font-stretch:normal;font-size:20px;line-height:125%;font-family:'Century Gothic';-inkscape-font-specification:'Century Gothic, Bold';text-align:start;letter-spacing:8.13000011px;writing-mode:lr-tb;text-anchor:start;fill:#0089bf;fill-opacity:1"
           id="path4953"
           inkscape:connector-curvature="0" />
        <path
           d="m 493.93698,662.3266 -1.91406,1.82617 q -1.95313,-2.06055 -4.39453,-2.06055 -2.06055,0 -3.47657,1.40625 -1.40625,1.40625 -1.40625,3.4668 0,1.43555 0.625,2.54883 0.625,1.11328 1.76758,1.74805 1.14258,0.63476 2.53907,0.63476 1.1914,0 2.17773,-0.43945 0.98633,-0.44922 2.16797,-1.6211 l 1.85547,1.9336 q -1.5918,1.55273 -3.00782,2.1582 -1.41601,0.5957 -3.23242,0.5957 -3.34961,0 -5.48828,-2.11914 -2.1289,-2.1289 -2.1289,-5.44921 0,-2.14844 0.96679,-3.81836 0.97656,-1.66993 2.78321,-2.68555 1.8164,-1.01563 3.90625,-1.01563 1.77734,0 3.41796,0.75196 1.65039,0.75195 2.8418,2.13867 z"
           style="font-style:normal;font-variant:normal;font-weight:bold;font-stretch:normal;font-size:20px;line-height:125%;font-family:'Century Gothic';-inkscape-font-specification:'Century Gothic, Bold';text-align:start;letter-spacing:8.13000011px;writing-mode:lr-tb;text-anchor:start;fill:#0089bf;fill-opacity:1"
           id="path4955"
           inkscape:connector-curvature="0" />
        <path
           d="m 503.46347,659.7973 2.93945,0 2.67578,5.15625 2.65625,-5.15625 2.9004,0 -4.19922,8.14453 0,6.22071 -2.75391,0 0,-6.22071 -4.21875,-8.14453 z"
           style="font-style:normal;font-variant:normal;font-weight:bold;font-stretch:normal;font-size:20px;line-height:125%;font-family:'Century Gothic';-inkscape-font-specification:'Century Gothic, Bold';text-align:start;letter-spacing:8.13000011px;writing-mode:lr-tb;text-anchor:start;fill:#0089bf;fill-opacity:1"
           id="path4957"
           inkscape:connector-curvature="0" />
      </g>
      <g
         transform="matrix(0.48563927,0,0,0.48563927,660.91301,413.85404)"
         id="g4959">
        <path
           style="fill:#0089bf;fill-opacity:1;stroke:none;stroke-width:1.14375985;stroke-miterlimit:4;stroke-dasharray:none;stroke-opacity:1"
           d="m 120.8387,293.33016 -8.6679,12.0807 c 0.13358,10.46127 -0.40839,21.1189 -2.97063,31.26755 72.10821,52.34847 192.84791,41.0675 243.48014,-33.78746 -95.82776,88.207 -202.74628,30.96664 -231.84161,-9.56079 z"
           id="path4961"
           inkscape:connector-curvature="0"
           sodipodi:nodetypes="ccccc" />
        <path
           style="fill:#5db842;fill-opacity:1;stroke:none;stroke-width:1.14375985;stroke-miterlimit:4;stroke-dasharray:none;stroke-opacity:1"
           d="m 3.179589,241.98767 c 8.086795,-9.49732 30.0892,-9.91045 43.767062,-8.73106 C 35.686572,206.75333 25.740832,132.92331 93.90299,70.599985 63.69867,133.54626 192.21987,165.03469 116.76243,287.93394 84.4815,234.88323 57.370431,145.26671 77.699977,99.123175 37.063242,164.57123 94.69795,271.59428 105.81508,290.16173 l -3.4625,0.88146 c 2.97878,6.08617 5.2723,19.73848 0.95434,37.08488 C 90.18122,299.59778 60.030656,241.1383 21.513698,240.50955 51.143619,245.04044 95.22475,318.53679 99.28403,333.52074 17.286494,337.32538 33.968674,235.90269 3.179589,241.98767 Z"
           id="path4963"
           inkscape:connector-curvature="0" />
        <path
           style="fill:#5db842;fill-opacity:1;stroke:none;stroke-width:1.14375985;stroke-miterlimit:4;stroke-dasharray:none;stroke-opacity:1"
           d="m 233.94727,72.523438 c -41.6122,-0.114598 -84.36257,20.793973 -111.63282,67.986332 33.44811,44.43459 37.71799,84.55144 11.85743,136.49804 53.13063,70.89666 152.43197,60.8571 200.35921,0.61407 -15.29736,-8.69354 -34.24326,-20.61177 -48.98617,-28.00469 -17.76972,25.55861 -94.13955,40.73682 -116.74023,-25.66602 l 186.76367,0 C 369.49127,131.30565 303.30092,72.714433 233.94727,72.523438 Z m 67.01562,101.511722 -132.1582,0 c 27.01836,-68.78153 117.89774,-52.81336 132.1582,0 z"
           id="path4965"
           inkscape:connector-curvature="0"
           sodipodi:nodetypes="sccccccsccc" />
        <path
           style="fill:#0089bf;fill-opacity:1;stroke:none;stroke-width:1.14375985;stroke-miterlimit:4;stroke-dasharray:none;stroke-opacity:1"
           d="M 110.69564,120.90257 C 97.591335,103.56226 89.297213,73.204927 107.93655,59.830719 197.18057,-4.2041826 318.98601,27.020885 368.78868,113.81308 288.69321,16.460525 155.51419,42.054648 110.69564,120.90257 Z"
           id="path4967"
           inkscape:connector-curvature="0"
           sodipodi:nodetypes="cscc" />
      </g>
    </g>
  </g>
</svg>
