<?xml version="1.0" encoding="UTF-8" standalone="no"?>
<svg
   xmlns:dc="http://purl.org/dc/elements/1.1/"
   xmlns:cc="http://creativecommons.org/ns#"
   xmlns:rdf="http://www.w3.org/1999/02/22-rdf-syntax-ns#"
   xmlns:svg="http://www.w3.org/2000/svg"
   xmlns="http://www.w3.org/2000/svg"
   version="1.1"
   id="svg4156"
   viewBox="0 0 300.00008 268.63005"
   height="75.81337mm"
   width="84.666687mm">
  <defs
     id="defs4158" />
  <metadata
     id="metadata4161">
    <rdf:RDF>
      <cc:Work
         rdf:about="">
        <dc:format>image/svg+xml</dc:format>
        <dc:type
           rdf:resource="http://purl.org/dc/dcmitype/StillImage" />
        <dc:title></dc:title>
      </cc:Work>
    </rdf:RDF>
  </metadata>
  <g
     transform="translate(-30.35685,-281.1123)"
     id="layer1">
    <path
       id="path3475"
       d="m 253.42914,522.57036 -33.9637,-27.17153 -49.75671,-0.054 -49.75674,-0.054 13.32743,-10.66031 13.3275,-10.6604 40.17881,0 40.17891,0 19.5532,15.6436 19.5534,15.64364 0,-15.64364 0,-15.6436 21.4285,0 21.42861,0 0,-64.28574 0,-64.28572 -21.42861,0 -21.4285,0 0,-10.71429 0,-10.71429 32.14281,0 32.1429,0 0,85.7143 0,85.71425 -21.4277,0 -21.42791,0 -0.054,27.17193 -0.054,27.1718 -33.9635,-27.1714 z m -180.215155,-42.81474 0,-27.2148 -21.428512,0 -21.428623,0 0,-85.71423 0,-85.7143 107.14287,0 107.14292,0 0,85.7143 0,85.71423 -51.69651,0 -51.69671,0 -34.01763,27.2148 -34.017805,27.21474 0,-27.21474 z m 105.267745,-48.6433 44.73231,0 0,-64.28573 0,-64.28572 -85.71432,0 -85.714247,0 0,64.28572 0,64.28573 21.428512,0 21.428603,0 0,15.6436 0,15.6435 19.553402,-15.6435 19.55323,-15.6436 44.73251,0 z"
       style="fill:#000000" />
  </g>
</svg>
