<?xml version="1.0" encoding="UTF-8" standalone="no"?>
<svg
   xmlns:dc="http://purl.org/dc/elements/1.1/"
   xmlns:cc="http://creativecommons.org/ns#"
   xmlns:rdf="http://www.w3.org/1999/02/22-rdf-syntax-ns#"
   xmlns:svg="http://www.w3.org/2000/svg"
   xmlns="http://www.w3.org/2000/svg"
   version="1.1"
   id="svg4156"
   viewBox="0 0 300.00005 224.47028"
   height="63.350502mm"
   width="84.666679mm">
  <defs
     id="defs4158" />
  <metadata
     id="metadata4161">
    <rdf:RDF>
      <cc:Work
         rdf:about="">
        <dc:format>image/svg+xml</dc:format>
        <dc:type
           rdf:resource="http://purl.org/dc/dcmitype/StillImage" />
        <dc:title></dc:title>
      </cc:Work>
    </rdf:RDF>
  </metadata>
  <g
     transform="translate(34.465376,-111.52696)"
     id="layer1">
    <path
       id="path3450"
       d="m -21.355209,335.2742 c -6.688001,-2.0101 -11.690701,-7.6709 -12.841101,-14.5306 -0.2385,-1.4218 -0.3098,-29.6724 -0.2479,-98.2222 l 0.087,-96.22627 0.8359,-2.3248 c 2.0935,-5.82221 6.7414,-10.22856 12.433501,-11.78746 l 2.3948,-0.65591 124.102189,0 c 88.3753,0 124.5694,0.0976 125.7253,0.33895 0.8928,0.1864 2.7702,0.89465 4.172,1.57399 4.6741,2.26508 8.2392,6.71615 9.552,11.92601 0.5832,2.31438 0.6118,3.45594 0.6118,24.444 l 0,22.0163 -46.9443,0.0979 -46.9442,0.0979 -3.0632,0.70682 c -19.9467,4.60217 -34.2289,19.2968 -38.2018,39.30482 -0.614,3.09203 -0.6936,4.41847 -0.6952,11.57583 0,8.7062 0.2387,10.864 1.8369,16.4782 3.4261,12.0348 11.1473,22.1549 21.9325,28.7466 5.2796,3.2267 12.5206,5.7337 18.8035,6.51 1.8835,0.2328 17.0975,0.341 48.0258,0.3415 l 45.269,7e-4 -0.086,22.7742 c -0.086,22.7649 -0.087,22.7748 -0.7835,24.859 -0.8839,2.6434 -3.3087,6.3382 -5.3675,8.1788 -0.8762,0.7834 -2.558,1.9054 -3.7373,2.4933 -4.4006,2.1939 7.4138,2.0129 -130.1758,1.9944 l -124.379989,-0.017 -2.3143,-0.6955 z M 152.07598,256.5521 c -2.9059,-0.6399 -4.8115,-1.3222 -7.5396,-2.6994 -7.7533,-3.9142 -13.4795,-11.0861 -15.8307,-19.8276 -0.6533,-2.4291 -0.7108,-6.8317 -0.7108,-10.2601 0,-3.4284 0.058,-7.83094 0.7108,-10.25997 2.8691,-10.66683 10.4879,-18.62088 21.0539,-21.98022 l 2.7413,-0.87157 50.8498,-0.0835 c 50.1904,-0.0826 50.8763,-0.0754 52.8806,0.5416 3.9339,1.21151 7.3034,4.60487 8.7491,8.81126 0.5148,1.49785 0.5543,3.19466 0.5543,23.8426 0,20.7601 -0.037,22.3382 -0.562,23.8662 -1.4083,4.1001 -4.8445,7.5706 -8.6893,8.7759 -1.9647,0.616 -2.7352,0.6248 -52.1225,0.6004 -41.5059,-0.021 -50.4649,-0.099 -52.0849,-0.4554 z m 16.0934,-17.2841 c 3.7533,-1.1658 7.487,-4.4535 9.3182,-8.2051 0.5031,-1.0307 1.1471,-3.0148 1.4311,-4.409 1.0555,-5.1809 -0.6016,-10.47795 -4.5248,-14.464 -7.2576,-7.37384 -19.032,-6.13899 -24.781,2.59901 -1.7813,2.70756 -2.5328,5.36129 -2.5419,8.97609 -0.017,6.9084 3.667,12.4448 10.1095,15.1917 3.1854,1.3581 7.2483,1.4732 10.9889,0.3113 z"
       style="fill:#000000" />
  </g>
</svg>
